<mxfile host="drawio-plugin" modified="2022-08-20T21:23:01.007Z" agent="5.0 (Windows NT 6.2; Win64; x64) AppleWebKit/537.36 (KHTML, like Gecko) Chrome/89.0.4389.114 Safari/537.36" version="14.7.4" etag="t3vB8L62CLasJ0jbs3ul" type="embed"><diagram id="KF6yEqdL07s13DDcyj1G" name="Page-1"><mxGraphModel dx="967" dy="753" grid="1" gridSize="10" guides="1" tooltips="1" connect="1" arrows="1" fold="1" page="1" pageScale="1" pageWidth="1600" pageHeight="900" math="0" shadow="0"><root><mxCell id="0"/><mxCell id="1" parent="0"/><mxCell id="50" value="" style="rounded=0;whiteSpace=wrap;html=1;" parent="1" vertex="1"><mxGeometry x="40" y="30" width="1520" height="850" as="geometry"/></mxCell><mxCell id="34" value="" style="rounded=0;whiteSpace=wrap;html=1;" parent="1" vertex="1"><mxGeometry x="60" y="70" width="1480" height="490" as="geometry"/></mxCell><mxCell id="4" value="«interface»&lt;br&gt;&lt;b&gt;Notification&lt;/b&gt;" style="html=1;" parent="1" vertex="1"><mxGeometry x="693" y="120" width="215" height="50" as="geometry"/></mxCell><mxCell id="9" value="+ deliverNotification(String message)" style="rounded=0;whiteSpace=wrap;html=1;" parent="1" vertex="1"><mxGeometry x="693" y="170" width="215" height="60" as="geometry"/></mxCell><mxCell id="30" style="edgeStyle=none;html=1;exitX=0.5;exitY=0;exitDx=0;exitDy=0;entryX=0.5;entryY=1;entryDx=0;entryDy=0;" parent="1" source="12" target="9" edge="1"><mxGeometry relative="1" as="geometry"><Array as="points"><mxPoint x="240" y="320"/><mxPoint x="530" y="320"/><mxPoint x="801" y="320"/></Array></mxGeometry></mxCell><mxCell id="12" value="SMSNotification" style="swimlane;fontStyle=1;align=center;verticalAlign=top;childLayout=stackLayout;horizontal=1;startSize=26;horizontalStack=0;resizeParent=1;resizeParentMax=0;resizeLast=0;collapsible=1;marginBottom=0;" parent="1" vertex="1"><mxGeometry x="130" y="420" width="220" height="60" as="geometry"/></mxCell><mxCell id="13" value="" style="line;strokeWidth=1;fillColor=none;align=left;verticalAlign=middle;spacingTop=-1;spacingLeft=3;spacingRight=3;rotatable=0;labelPosition=right;points=[];portConstraint=eastwest;" parent="12" vertex="1"><mxGeometry y="26" width="220" height="8" as="geometry"/></mxCell><mxCell id="14" value="+ deliverNotification(String message)" style="text;strokeColor=none;fillColor=none;align=left;verticalAlign=top;spacingLeft=4;spacingRight=4;overflow=hidden;rotatable=0;points=[[0,0.5],[1,0.5]];portConstraint=eastwest;" parent="12" vertex="1"><mxGeometry y="34" width="220" height="26" as="geometry"/></mxCell><mxCell id="32" style="edgeStyle=none;html=1;" parent="1" source="15" edge="1"><mxGeometry relative="1" as="geometry"><mxPoint x="800" y="230" as="targetPoint"/><Array as="points"><mxPoint x="1360" y="320"/><mxPoint x="1080" y="320"/><mxPoint x="800" y="320"/></Array></mxGeometry></mxCell><mxCell id="15" value="CarrierPigeonNotification" style="swimlane;fontStyle=1;align=center;verticalAlign=top;childLayout=stackLayout;horizontal=1;startSize=26;horizontalStack=0;resizeParent=1;resizeParentMax=0;resizeLast=0;collapsible=1;marginBottom=0;" parent="1" vertex="1"><mxGeometry x="1250" y="420" width="220" height="60" as="geometry"/></mxCell><mxCell id="16" value="" style="line;strokeWidth=1;fillColor=none;align=left;verticalAlign=middle;spacingTop=-1;spacingLeft=3;spacingRight=3;rotatable=0;labelPosition=right;points=[];portConstraint=eastwest;" parent="15" vertex="1"><mxGeometry y="26" width="220" height="8" as="geometry"/></mxCell><mxCell id="17" value="+ deliverNotification(String message)" style="text;strokeColor=none;fillColor=none;align=left;verticalAlign=top;spacingLeft=4;spacingRight=4;overflow=hidden;rotatable=0;points=[[0,0.5],[1,0.5]];portConstraint=eastwest;" parent="15" vertex="1"><mxGeometry y="34" width="220" height="26" as="geometry"/></mxCell><mxCell id="28" style="edgeStyle=none;html=1;entryX=0.5;entryY=1;entryDx=0;entryDy=0;" parent="1" source="18" target="9" edge="1"><mxGeometry relative="1" as="geometry"><Array as="points"><mxPoint x="520" y="320"/><mxPoint x="670" y="320"/><mxPoint x="801" y="320"/></Array></mxGeometry></mxCell><mxCell id="18" value="EmailNotification" style="swimlane;fontStyle=1;align=center;verticalAlign=top;childLayout=stackLayout;horizontal=1;startSize=26;horizontalStack=0;resizeParent=1;resizeParentMax=0;resizeLast=0;collapsible=1;marginBottom=0;" parent="1" vertex="1"><mxGeometry x="410" y="420" width="220" height="60" as="geometry"/></mxCell><mxCell id="19" value="" style="line;strokeWidth=1;fillColor=none;align=left;verticalAlign=middle;spacingTop=-1;spacingLeft=3;spacingRight=3;rotatable=0;labelPosition=right;points=[];portConstraint=eastwest;" parent="18" vertex="1"><mxGeometry y="26" width="220" height="8" as="geometry"/></mxCell><mxCell id="20" value="+ deliverNotification(String message)" style="text;strokeColor=none;fillColor=none;align=left;verticalAlign=top;spacingLeft=4;spacingRight=4;overflow=hidden;rotatable=0;points=[[0,0.5],[1,0.5]];portConstraint=eastwest;" parent="18" vertex="1"><mxGeometry y="34" width="220" height="26" as="geometry"/></mxCell><mxCell id="27" style="edgeStyle=none;html=1;entryX=0.5;entryY=1;entryDx=0;entryDy=0;" parent="1" source="21" target="9" edge="1"><mxGeometry relative="1" as="geometry"/></mxCell><mxCell id="21" value="MailLetterNotification" style="swimlane;fontStyle=1;align=center;verticalAlign=top;childLayout=stackLayout;horizontal=1;startSize=26;horizontalStack=0;resizeParent=1;resizeParentMax=0;resizeLast=0;collapsible=1;marginBottom=0;" parent="1" vertex="1"><mxGeometry x="690.5" y="420" width="220" height="60" as="geometry"/></mxCell><mxCell id="22" value="" style="line;strokeWidth=1;fillColor=none;align=left;verticalAlign=middle;spacingTop=-1;spacingLeft=3;spacingRight=3;rotatable=0;labelPosition=right;points=[];portConstraint=eastwest;" parent="21" vertex="1"><mxGeometry y="26" width="220" height="8" as="geometry"/></mxCell><mxCell id="23" value="+ deliverNotification(String message)" style="text;strokeColor=none;fillColor=none;align=left;verticalAlign=top;spacingLeft=4;spacingRight=4;overflow=hidden;rotatable=0;points=[[0,0.5],[1,0.5]];portConstraint=eastwest;" parent="21" vertex="1"><mxGeometry y="34" width="220" height="26" as="geometry"/></mxCell><mxCell id="31" style="edgeStyle=none;html=1;entryX=0.5;entryY=1;entryDx=0;entryDy=0;" parent="1" source="24" target="9" edge="1"><mxGeometry relative="1" as="geometry"><Array as="points"><mxPoint x="1080" y="320"/><mxPoint x="950" y="320"/><mxPoint x="801" y="320"/></Array></mxGeometry></mxCell><mxCell id="24" value="MobilePushNotification" style="swimlane;fontStyle=1;align=center;verticalAlign=top;childLayout=stackLayout;horizontal=1;startSize=26;horizontalStack=0;resizeParent=1;resizeParentMax=0;resizeLast=0;collapsible=1;marginBottom=0;" parent="1" vertex="1"><mxGeometry x="970" y="420" width="220" height="60" as="geometry"/></mxCell><mxCell id="25" value="" style="line;strokeWidth=1;fillColor=none;align=left;verticalAlign=middle;spacingTop=-1;spacingLeft=3;spacingRight=3;rotatable=0;labelPosition=right;points=[];portConstraint=eastwest;" parent="24" vertex="1"><mxGeometry y="26" width="220" height="8" as="geometry"/></mxCell><mxCell id="26" value="+ deliverNotification(String message)" style="text;strokeColor=none;fillColor=none;align=left;verticalAlign=top;spacingLeft=4;spacingRight=4;overflow=hidden;rotatable=0;points=[[0,0.5],[1,0.5]];portConstraint=eastwest;" parent="24" vertex="1"><mxGeometry y="34" width="220" height="26" as="geometry"/></mxCell><mxCell id="42" style="edgeStyle=none;html=1;exitX=0.5;exitY=0;exitDx=0;exitDy=0;" parent="1" source="38" target="34" edge="1"><mxGeometry relative="1" as="geometry"/></mxCell><mxCell id="38" value="NotificationFactory" style="swimlane;fontStyle=1;align=center;verticalAlign=top;childLayout=stackLayout;horizontal=1;startSize=26;horizontalStack=0;resizeParent=1;resizeParentMax=0;resizeLast=0;collapsible=1;marginBottom=0;" parent="1" vertex="1"><mxGeometry x="675" y="620" width="250" height="86" as="geometry"/></mxCell><mxCell id="39" value="+ message: String" style="text;strokeColor=none;fillColor=none;align=left;verticalAlign=top;spacingLeft=4;spacingRight=4;overflow=hidden;rotatable=0;points=[[0,0.5],[1,0.5]];portConstraint=eastwest;" parent="38" vertex="1"><mxGeometry y="26" width="250" height="26" as="geometry"/></mxCell><mxCell id="40" value="" style="line;strokeWidth=1;fillColor=none;align=left;verticalAlign=middle;spacingTop=-1;spacingLeft=3;spacingRight=3;rotatable=0;labelPosition=right;points=[];portConstraint=eastwest;" parent="38" vertex="1"><mxGeometry y="52" width="250" height="8" as="geometry"/></mxCell><mxCell id="41" value="+ sendNotification(): Notification" style="text;strokeColor=none;fillColor=none;align=left;verticalAlign=top;spacingLeft=4;spacingRight=4;overflow=hidden;rotatable=0;points=[[0,0.5],[1,0.5]];portConstraint=eastwest;" parent="38" vertex="1"><mxGeometry y="60" width="250" height="26" as="geometry"/></mxCell><mxCell id="48" style="edgeStyle=none;html=1;" parent="1" source="44" target="41" edge="1"><mxGeometry relative="1" as="geometry"><mxPoint x="800.5" y="730" as="targetPoint"/></mxGeometry></mxCell><mxCell id="44" value="NotificationController" style="swimlane;fontStyle=1;align=center;verticalAlign=top;childLayout=stackLayout;horizontal=1;startSize=26;horizontalStack=0;resizeParent=1;resizeParentMax=0;resizeLast=0;collapsible=1;marginBottom=0;" parent="1" vertex="1"><mxGeometry x="675.5" y="770" width="250" height="78" as="geometry"/></mxCell><mxCell id="45" value="+ message: String&#10;+ deliveryMethod: String" style="text;strokeColor=none;fillColor=none;align=left;verticalAlign=top;spacingLeft=4;spacingRight=4;overflow=hidden;rotatable=0;points=[[0,0.5],[1,0.5]];portConstraint=eastwest;" parent="44" vertex="1"><mxGeometry y="26" width="250" height="44" as="geometry"/></mxCell><mxCell id="46" value="" style="line;strokeWidth=1;fillColor=none;align=left;verticalAlign=middle;spacingTop=-1;spacingLeft=3;spacingRight=3;rotatable=0;labelPosition=right;points=[];portConstraint=eastwest;" parent="44" vertex="1"><mxGeometry y="70" width="250" height="8" as="geometry"/></mxCell></root></mxGraphModel></diagram></mxfile>